<svg xmlns="http://www.w3.org/2000/svg" xml:space="preserve" style="fill-rule:evenodd;clip-rule:evenodd;stroke-linejoin:round;stroke-miterlimit:2" viewBox="0 0 601 117"><path d="M74.042 95.407c-.053.094-.227.07-.28.164-.184.329.819 1.675 1.8 7.276 1.547 8.843-7.417 16.298-16.115 12.672-.966-.403-.998-.32-1.956.051-.672.261-4.855 1.883-9.014-.017-11.936-5.455-5.101-19.065-5.153-19.931-.081-1.358-.342.41-3.334 5.13-.588.927-4.682 7.383-12.402 5.88-7.664-1.492-8.389-7.747-9.634-8.269-.698-.293-5.455-2.289-6.874-6.506-3.783-11.243 5.839-15.363 9.94-17.53 2.891-1.527-1.82.251-6.523 1.155-9.024 1.735-16.158-6.85-13.394-15.15.483-1.451.847-1.483.276-2.903-1.903-4.736-.274-9.118 1.22-11.159 4.962-6.778 12.249-5.132 18.051-3.158 5.07 1.725-1.177-.879-5.576-3.905-2.723-1.873-5.131-5.704-4.918-10.118.398-8.217 8.164-10.504 8.353-10.952.305-.722 2.335-5.519 6.722-7.126 11.33-4.152 16.437 7.955 17.233 9.626 2.23 4.682-.125-1.409-1.021-6.494-.939-5.333 2.019-10.013 5.426-11.97 6.021-3.458 11.06-.494 11.47-.414.16.031 5.034-2.358 9.56-.609 12.34 4.768 6.059 19.168 5.892 19.664-1.787 5.294.878-1.271 4.065-5.854 2.842-4.085 8.116-5.415 11.735-4.624 7.018 1.535 8.736 7.582 8.83 7.791.124.274 7.662 2.647 8.341 10.429.796 9.128-8.547 12.949-10.712 13.997-4.572 2.214 1.378-.233 6.369-1.066.795-.133 6.043-1.009 9.791 2.393 6.783 6.156 3.651 12.625 3.021 14.333-.104.281 3.12 6.396-.561 12.007-5.507 8.393-15.023 4.685-18.424 3.557-4.239-1.406.914.803 4.632 3.276 9.782 6.508 4.769 15.56 4.081 16.613-2.252 3.446-5.474 4.457-5.993 4.697-.758.35-2.141 6.516-8.876 8.094-10.868 2.546-15.308-9.884-16.047-11.052Zm-1.028-43.272c-5.573 1.192-5.365-1.993-6.169-2.411-.774-.402-2.994-.728-2.045-5.975l-.364-.064c-3.699 5.006-5.227 2.349-6.141 2.668-.916.319-1.77 1.022-3.889-.546-1.084-.803-2.551-3.429-2.203-1.75 1.091 5.264-2.035 5.17-2.55 6.365-1.509 3.498-6.494 1.004-5.986 2.157.092.209 1.184.381 2.581 2.464 1.294 1.931-.331 2.396.376 4.218.968 2.496-2.42 4.787-2.802 5.046-1.723 1.165.687.034 2.75.285 3.567.433 2.704 2.228 3.524 2.591 4.086 1.81 1.515 5.568 2.178 6.146.314.274 2.673-3.968 5.234-3.046 2.074.746 2.335-.761 4.24.309 2.476 1.39 3.54 5.144 3.066 2.324-.635-3.78-.078-4.631 2.018-5.71.687-.354.598-2.2 2.984-2.553 2.492-.369 4.743.6 3.161-.52-4.554-3.225-2.028-4.899-2.368-5.92-.647-1.945-.918-3.049 2.642-5.632.003-.109.196-.15.199-.259.001-.038-.031-.013-.436-.188Zm-53.828-28.14c.722 2.305.248 4.134 13.701 15.321 8.181 6.803 15.989 10.605 15.846 9.014-.508-5.666-17.161-25.997-22.459-28.334-3.75-1.654-6.872-.961-7.068-.292-.387 1.315-.062 3.951-.02 4.291Zm12.676 39.46c-1.819.239-17.954 2.358-22.926.771-5.235-1.671-6.257-5.314-6.67-4.118-2.721 7.867 2.953 16.262 13.06 14.191 8.484-1.738 14.105-4.463 15.262-5.023 5.405-2.619 10.652-3.444 14.006-6.894 1.314-1.352 2.096-3.781-.209-2.376-3.435 2.094-11.506 3.263-12.523 3.45Zm66.11-41.841c-.08-1.189.013-2.281-.899-2.483-2.899-.64-5.671.507-6.127.695-5.788 2.395-22.331 23.173-22.715 28.502-.066.915 4.725-.11 15.038-8.419 15.858-12.776 14.572-15.676 14.702-18.295ZM34.8 54.03c3.501.751 7 1.279 10.192 3.338.96.619 2.212-1.879-4.088-5.466-1.007-.573-1.217-.083-13.338-5.633-1.139-.522-11.884-3.879-14.919-3.918-8.644-.111-12.859 7.914-10.4 14.513.679 1.822 1.463-4.547 11.196-4.592 12.149-.057 20.839 1.672 21.357 1.758ZM48.39 80.9c1.963-4.196 1.993-4.162 2.108-4.546 2.308-7.667-.497-8.574-.711-7.718-.392 1.567-1.702 6.808-10.569 17.207-11.377 13.343-13.003 13.299-19.086 13.052-1.029-.042 1.693 5.18 6.692 6.516 9.296 2.484 13.61-7.302 14.32-8.512 5.136-8.761 4.687-10.259 7.247-15.998Zm5.235 3.775c.128-.704 1.251-8.632 3.452-12.251 1.281-2.106-1.106-1.292-2.189-.275-3.885 3.647-2.96 5.502-8.453 16.985-.855 1.787-3.401 10.344-3.951 13.947-1.18 7.717 6.012 14.391 13.971 11.771 2.174-.715-1.461-.892-3.41-6.174-1.807-4.898.074-20.746.58-24.004ZM23.888 73.757c-7.708 4.28-13.422 6.9-12.559 15.174.561 5.376 7.094 9.568 6.808 7.757-1.147-7.275 4.64-11.504 13.277-19.152.412-.365 8.22-6.673 12.77-8.865 3.636-1.751 5.157-1.308 4.149-2.345-1.556-1.599-7.135-.144-8.211.357-5.607 2.612-5.56 2.673-11.405 4.751-1.833.651-3.037 1.403-4.829 2.323Zm69.175-.074c-4.405-2.323-4.482-2.099-9.134-3.876-5.703-2.178-9.371-4.963-14.115-4.097-.77.14-2.127 1.183-1.05 1.492 1.527.437 7.293 2.088 16.915 10.389C98.01 88.23 99.111 89.654 98.947 96.681c-.036 1.534 6.247-2.467 6.796-8.028.822-8.327-5.874-11.199-12.68-14.969ZM19.165 93.492c-.314 3.405-.565 4.753 2.828 4.52 2.983-.205 5.339.518 16.966-13.459 6.716-8.073 11.396-16.749 9.201-16.293-6.834 1.421-26.706 17.708-28.52 23.363-.426 1.329-.391 1.478-.475 1.869Zm29.472-48.604c1.271 3.053 1.12 4.472 2.104 3.351 2.224-2.53-1.009-9.28-1.358-10.009-4.068-8.494-3.015-8.966-7.696-17.108-1.904-3.311-5.627-11.609-14.609-9.619-5.023 1.113-8.128 6.629-6.949 6.593 1.33-.04 3.916-.706 7.963 1.721 1.827 1.096 14.344 12.948 20.546 25.07Zm14.926 40.855c2.963 23.993.098 24.968-3.558 28.366-1.448 1.346 11.436 3.956 14.381-6.735.61-2.214.354-9.24-5.468-21.872-2.716-5.894-3.456-10.599-6.969-13.534-1.154-.965-3.093-1.244-2.156.214 2.466 3.835 3.678 12.969 3.769 13.561ZM38.505 49.505c8.079 3.957 10.956.594 9.882.279-1.541-.453-2.915-.355-9.058-4.353-1.098-.715-17.925-12.79-20.546-19.273-1.77-4.381.057-6.968-1.36-6.219-8.191 4.333-8.285 14.092-.977 18.943 7.33 4.866 12.68 6.806 13.855 7.232.405.147 3.913 1.301 8.203 3.391Zm14.884 55.193c.324 7.063 5.076 9.166 5.43 8.994 1.868-.908 4.317-4.522 4.642-6.848.986-7.055-.809-29.073-4.72-34.348-1.037-1.398-5.786 11.251-5.352 32.202Zm.244-72.147c-.707-4.264-2.381-19.72-.663-24.297 1.757-4.682 5.048-5.504 3.717-6.066-5.493-2.321-14.543 1.378-14.398 10.344.051 3.119 3.279 13.598 4.145 15.43 5.532 11.7 4.244 12.464 7.918 16.324 2.286 2.402 3.346 1.328 3.023.785-2.24-3.769-2.94-7.852-3.742-12.52Zm14.368 38.726c-.019-.054-.386-.873-.751-2.407-.475-1.997-3.544 1.846.056 9.163 4.224 8.585 2.829 9.588 10.14 21.39 6.826 11.019 17.28 5.692 19.684-.052.445-1.063-2.81.307-6.5-1.314-4.803-2.11-17.929-16.706-22.628-26.779Zm10.408-21.772a82.707 82.707 0 0 1 8.267-3.468c1.17-.418 6.773-2.419 13.777-7.169 7.632-5.176 5.388-12.48 3.45-15.312-1.608-2.35-5.133-4.619-5.027-3.277.393 4.959.279 7.677-12.667 18.552-12.46 10.467-16.363 10.536-17.675 10.946-1.06.33 1.867 3.649 9.876-.272Zm-5.171-24.707c-2.851 5.421-2.516 7.09-5.874 13.893-3.735 7.566-.557 11.053-.172 9.669.014-.051-.011-2.352 4.318-9.047 2.381-3.682 13.447-17.617 18.122-20.004 5.314-2.714 8.484.148 7.209-2.261-3.615-6.833-13.345-8.794-18.898-.43-2.122 3.197-4.464 7.739-4.706 8.18Zm24.74 71.091c.028-.413.193-2.849-.892-5.099-2.683-5.562-20.793-20.682-28.058-22.505-2.609-.655 2.492 8.266 8.395 15.459C89.854 98.89 92.698 98.009 95.719 97.921c2.143-.062 2.058-.6 2.259-2.032Zm-6.806-42.073c-1.524.169-16.646 1.851-18.652 4.426-.442.567 2.367 2.424 11.194 3.899.299.05 19.601 2.961 25.098.611 2.906-1.243 5.452-3.753 4.782-4.789-3.824-5.917-11.474-5.036-22.422-4.146Zm-7.723-.046c6.199-1.076 20.712-2.401 25.091-.884 4.703 1.63 5.675 4.992 6.152 3.993 2.151-4.506-.152-13.569-8.836-14.566-4.223-.485-15.915 3.679-16.83 4.105-11.857 5.522-12.569 4.334-16.523 8.077-1.946 1.842-1.3 3.317-.575 2.881 2.854-1.716 4.624-2.323 11.52-3.606Zm6.12 10.175c-13.464-1.448-16.449-3.69-17.631-4.38-.58-.339-1.495.69.325 2.611 3.464 3.655 6.57 3.515 14.849 7.388 1.122.525 6.422 3.004 14.749 4.699 8.898 1.812 12.431-4.626 13.234-7.535.933-3.38-.268-7.486-.899-6.853-4.515 4.527-5.008 5.864-24.627 4.069ZM63.007 34.423c-1.952 10.305-3.568 9.853-3.528 10.957.037 1.029 4.343.097 6.795-7.49.939-2.905 3.564-8.648 3.96-9.39.39-.732 5.106-13.162 4.261-18.081-1.261-7.335-8.912-10.372-14.27-8.236-2.127.848 4.135 1.088 4.435 10.62.125 3.983-.159 13.299-1.652 21.62Zm.513-14.407c.015-.451.282-5.209.038-8.542-.381-5.22-4.613-8.743-5.449-8.197-5.538 3.618-4.968 9.914-4.755 15.659.529 14.234 3.894 27.214 5.474 25.362 3.431-4.02 4.568-22.307 4.691-24.282ZM14.514 63.68c17.749-.023 28.715-3.569 29.918-4.934.693-.786-4.178-3.375-17.106-4.72-17.776-1.85-19.688.096-21.717 1.668-3.163 2.451-2.33 3.347-1.691 4.047 3.608 3.954 7.009 3.968 10.595 3.94Z" style="fill:#010101;stroke:#010101;stroke-width:1px"/><path d="M135.041 52.831c-.079.952-.079 2.221-.079 2.38 0 6.584 1.19 9.36 4.839 11.66 3.252 1.983 7.853 2.618 19.91 2.618 15.944 0 23.638-.793 27.604-2.697 4.204-2.142 6.187-6.187 6.187-12.85 0-3.966-.714-6.901-2.3-9.122-2.459-3.569-6.108-4.839-13.802-4.839-14.119-.079-14.119-.079-18.006-.079-6.187-.079-10.312-.476-12.771-1.111-3.569-1.031-4.521-2.618-4.521-7.456 0-7.536 4.045-9.043 24.034-9.043 6.663 0 11.581.476 14.199 1.348 3.649 1.19 4.442 2.538 4.442 7.694v.793h7.06c-.079-6.822-.952-9.439-3.966-11.819-3.649-2.935-9.519-4.045-21.417-4.045-5.077 0-12.216.317-16.102.793-6.028.714-8.805 1.586-11.502 3.807-2.618 2.142-3.966 5.632-3.966 10.391 0 10.788 5.156 14.754 19.116 14.754 25.859 0 25.859 0 28.476.873 2.776.952 3.807 3.014 3.807 7.615 0 4.521-1.666 7.139-5.077 7.853-3.014.714-10.074 1.19-16.975 1.19-10.788 0-16.975-.397-19.037-1.19-2.697-1.031-3.173-2.3-3.332-8.408V52.83h-6.822ZM246.964 16.264c-4.601 0-13.723.238-16.895.397-7.218.476-9.915 1.19-12.612 3.173-3.887 3.014-5.156 8.646-5.156 22.845 0 8.567.317 13.485 1.19 16.975.952 4.283 4.363 7.615 8.646 8.567 3.966.873 13.009 1.269 27.128 1.269 16.182 0 22.051-1.031 25.145-4.283 2.935-3.173 4.045-9.122 4.045-22.131 0-4.045-.238-9.36-.555-12.057-.555-5.632-1.507-8.329-3.728-10.47-3.411-3.411-9.122-4.283-27.207-4.283Zm-4.125 6.346c13.564 0 17.609.159 21.655.793 3.569.555 5.473 2.142 5.949 5.156.476 2.38.793 8.725.793 14.674 0 4.918-.397 10.629-.873 13.485-.635 3.173-2.3 4.839-5.394 5.394-3.569.635-10.867 1.031-18.641 1.031-3.411 0-12.295-.238-15.15-.397-5.87-.397-8.011-.952-9.439-2.459-1.666-1.824-2.221-6.425-2.221-18.165 0-10.153.793-15.15 2.697-16.895 2.062-1.904 7.456-2.618 20.624-2.618ZM298.84 69.33h37.043c14.912 0 18.958-.793 22.765-4.363 3.966-3.728 5.632-10.391 5.632-22.131 0-12.453-1.111-17.609-4.601-21.337-3.966-4.204-8.011-5.077-24.352-5.077h-36.488v52.907Zm7.06-6.187V22.61h29.27c5.949 0 8.249 0 9.677.159 4.839.317 7.298 1.269 9.043 3.332 2.062 2.618 3.173 8.249 3.173 16.42 0 12.85-2.3 18.561-8.011 19.91-2.935.714-3.252.714-13.485.714h-29.666ZM384.587 69.33h51.876v-6.187h-44.817V44.978h42.834v-6.187h-42.834V22.609h44.737v-6.187h-51.797v52.907ZM508.804 51.245l-.079 2.38c0 6.584-1.111 8.011-6.425 8.805-2.062.317-11.264.714-16.499.714-6.425 0-13.643-.238-17.133-.635-4.442-.397-6.187-2.062-6.822-6.108-.317-2.618-.793-11.105-.793-15.468 0-9.201.952-14.278 2.935-15.944 2.142-1.666 8.567-2.38 22.527-2.38 9.201 0 15.388.555 18.006 1.507 3.014 1.19 3.807 2.776 3.887 8.011v1.824h6.584c-.159-9.122-.476-10.788-2.856-13.167-3.411-3.49-9.043-4.521-25.304-4.521-4.204 0-11.184.159-14.516.397-7.932.476-10.946 1.19-13.485 3.173-3.649 2.935-4.918 9.201-4.918 23.876 0 12.771 1.111 18.641 4.125 21.575 3.49 3.411 9.043 4.204 29.904 4.204 16.34 0 21.337-.793 24.431-3.728 2.459-2.38 2.856-4.363 3.252-14.516h-6.822ZM569.009 16.264c-4.601 0-13.723.238-16.895.397-7.218.476-9.915 1.19-12.612 3.173-3.887 3.014-5.156 8.646-5.156 22.845 0 8.567.317 13.485 1.19 16.975.952 4.283 4.363 7.615 8.646 8.567 3.966.873 13.009 1.269 27.128 1.269 16.182 0 22.051-1.031 25.145-4.283 2.935-3.173 4.045-9.122 4.045-22.131 0-4.045-.238-9.36-.555-12.057-.555-5.632-1.507-8.329-3.728-10.47-3.411-3.411-9.122-4.283-27.207-4.283Zm-4.125 6.346c13.564 0 17.609.159 21.655.793 3.569.555 5.473 2.142 5.949 5.156.476 2.38.793 8.725.793 14.674 0 4.918-.397 10.629-.873 13.485-.635 3.173-2.3 4.839-5.394 5.394-3.569.635-10.867 1.031-18.641 1.031-3.411 0-12.295-.238-15.15-.397-5.87-.397-8.011-.952-9.439-2.459-1.666-1.824-2.221-6.425-2.221-18.165 0-10.153.793-15.15 2.697-16.895 2.062-1.904 7.456-2.618 20.624-2.618Z" style="fill:#010101;fill-rule:nonzero"/><path d="M134.883 83.03h2.351v17.617h-2.351zM144.365 83.03v17.617h2.351V85.222h.528l15.346 15.425h3.988V83.03h-2.351v15.451h-.555L148.273 83.03h-3.909ZM172.389 83.03v2.06h8.848v15.557h2.351V85.09h8.795v-2.06h-19.994ZM198.194 100.647h17.274v-2.06h-14.923v-6.048h14.263v-2.06h-14.263v-5.388h14.897v-2.06h-17.247v17.617ZM221.622 100.647h2.351v-6.788h8.637c3.803.026 3.803.026 4.622.158 1.109.158 1.743.819 1.875 1.955.106.687.106.713.106 2.985v1.69h2.351v-2.509c0-3.011-.106-3.539-.792-4.252-.449-.475-.951-.74-1.796-.898 2.324-.475 2.905-1.4 2.905-4.649 0-1.453-.158-2.324-.555-3.143-.555-1.083-1.611-1.77-3.037-1.955-1.215-.158-1.241-.158-5.679-.211h-10.988v17.617Zm2.351-8.848V85.09h8.637c4.252 0 5.309.106 6.022.634.528.37.845 1.347.845 2.588 0 .898-.158 1.902-.37 2.298-.475.898-1.558 1.189-4.384 1.189h-10.75ZM248.562 83.03h2.351v17.617h-2.351zM269.243 82.977c-1.532 0-4.569.079-5.626.132-2.404.158-3.302.396-4.2 1.057-1.294 1.004-1.717 2.879-1.717 7.607 0 2.853.106 4.49.396 5.652.317 1.426 1.453 2.536 2.879 2.853 1.321.291 4.332.423 9.033.423 5.388 0 7.343-.343 8.373-1.426.977-1.057 1.347-3.037 1.347-7.369 0-1.347-.079-3.117-.185-4.015-.185-1.875-.502-2.773-1.241-3.486-1.136-1.136-3.037-1.426-9.06-1.426Zm-1.373 2.113c4.517 0 5.864.053 7.211.264 1.189.185 1.822.713 1.981 1.717.158.792.264 2.905.264 4.886 0 1.638-.132 3.539-.291 4.49-.211 1.057-.766 1.611-1.796 1.796-1.189.211-3.619.343-6.207.343-1.136 0-4.094-.079-5.045-.132-1.955-.132-2.668-.317-3.143-.819-.555-.607-.74-2.139-.74-6.048 0-3.381.264-5.045.898-5.626.687-.634 2.483-.872 6.867-.872ZM286.517 100.647h2.351v-6.788h8.637c3.803.026 3.803.026 4.622.158 1.109.158 1.743.819 1.875 1.955.106.687.106.713.106 2.985v1.69h2.351v-2.509c0-3.011-.106-3.539-.792-4.252-.449-.475-.951-.74-1.796-.898 2.324-.475 2.905-1.4 2.905-4.649 0-1.453-.158-2.324-.555-3.143-.555-1.083-1.611-1.77-3.037-1.955-1.215-.158-1.241-.158-5.679-.211h-10.988v17.617Zm2.351-8.848V85.09h8.637c4.252 0 5.309.106 6.022.634.528.37.845 1.347.845 2.588 0 .898-.158 1.902-.37 2.298-.475.898-1.558 1.189-4.384 1.189h-10.75ZM313.458 83.03h2.351v17.617h-2.351zM322.465 95.153c-.026.317-.026.74-.026.792 0 2.192.396 3.117 1.611 3.883 1.083.66 2.615.872 6.63.872 5.309 0 7.871-.264 9.192-.898 1.4-.713 2.06-2.06 2.06-4.279 0-1.321-.238-2.298-.766-3.037-.819-1.189-2.034-1.611-4.596-1.611-4.701-.026-4.701-.026-5.996-.026-2.06-.026-3.434-.158-4.252-.37-1.189-.343-1.506-.872-1.506-2.483 0-2.509 1.347-3.011 8.003-3.011 2.219 0 3.856.158 4.728.449 1.215.396 1.479.845 1.479 2.562v.264h2.351c-.026-2.271-.317-3.143-1.321-3.935-1.215-.977-3.17-1.347-7.131-1.347-1.69 0-4.068.106-5.362.264-2.007.238-2.932.528-3.83 1.268-.872.713-1.321 1.875-1.321 3.46 0 3.592 1.717 4.913 6.365 4.913 8.61 0 8.61 0 9.482.291.924.317 1.268 1.004 1.268 2.536 0 1.506-.555 2.377-1.69 2.615-1.004.238-3.354.396-5.652.396-3.592 0-5.652-.132-6.339-.396-.898-.343-1.057-.766-1.109-2.8v-.37h-2.271ZM348.534 83.03v17.617h2.351V85.222h1.03l9.931 15.425h1.902l9.825-15.425h.977v15.425h2.351V83.03h-4.728l-9.376 14.95-9.561-14.95h-4.701ZM395.231 82.977c-1.532 0-4.569.079-5.626.132-2.404.158-3.302.396-4.2 1.057-1.294 1.004-1.717 2.879-1.717 7.607 0 2.853.106 4.49.396 5.652.317 1.426 1.453 2.536 2.879 2.853 1.321.291 4.332.423 9.033.423 5.388 0 7.343-.343 8.373-1.426.977-1.057 1.347-3.037 1.347-7.369 0-1.347-.079-3.117-.185-4.015-.185-1.875-.502-2.773-1.241-3.486-1.136-1.136-3.037-1.426-9.06-1.426Zm-1.373 2.113c4.517 0 5.864.053 7.211.264 1.189.185 1.822.713 1.981 1.717.158.792.264 2.905.264 4.886 0 1.638-.132 3.539-.291 4.49-.211 1.057-.766 1.611-1.796 1.796-1.189.211-3.619.343-6.207.343-1.136 0-4.094-.079-5.045-.132-1.955-.132-2.668-.317-3.143-.819-.555-.607-.74-2.139-.74-6.048 0-3.381.264-5.045.898-5.626.687-.634 2.483-.872 6.867-.872Z" style="fill:#5d5d5d;fill-rule:nonzero"/></svg>