<svg xmlns="http://www.w3.org/2000/svg" xml:space="preserve" style="fill-rule:evenodd;clip-rule:evenodd;stroke-linejoin:round;stroke-miterlimit:2" viewBox="0 0 117 117"><path d="M74.042 95.407c-.053.094-.227.07-.28.164-.184.329.819 1.675 1.8 7.276 1.547 8.843-7.417 16.298-16.115 12.672-.966-.403-.998-.32-1.956.051-.672.261-4.855 1.883-9.014-.017-11.936-5.455-5.101-19.065-5.153-19.931-.081-1.358-.342.41-3.334 5.13-.588.927-4.682 7.383-12.402 5.88-7.664-1.492-8.389-7.747-9.634-8.269-.698-.293-5.455-2.289-6.874-6.506-3.783-11.243 5.839-15.363 9.94-17.53 2.891-1.527-1.82.251-6.523 1.155-9.024 1.735-16.158-6.85-13.394-15.15.483-1.451.847-1.483.276-2.903-1.903-4.736-.274-9.118 1.22-11.159 4.962-6.778 12.249-5.132 18.051-3.158 5.07 1.725-1.177-.879-5.576-3.905-2.723-1.873-5.131-5.704-4.918-10.118.398-8.217 8.164-10.504 8.353-10.952.305-.722 2.335-5.519 6.722-7.126 11.33-4.152 16.437 7.955 17.233 9.626 2.23 4.682-.125-1.409-1.021-6.494-.939-5.333 2.019-10.013 5.426-11.97 6.021-3.458 11.06-.494 11.47-.414.16.031 5.034-2.358 9.56-.609 12.34 4.768 6.059 19.168 5.892 19.664-1.787 5.294.878-1.271 4.065-5.854 2.842-4.085 8.116-5.415 11.735-4.624 7.018 1.535 8.736 7.582 8.83 7.791.124.274 7.662 2.647 8.341 10.429.796 9.128-8.547 12.949-10.712 13.997-4.572 2.214 1.378-.233 6.369-1.066.795-.133 6.043-1.009 9.791 2.393 6.783 6.156 3.651 12.625 3.021 14.333-.104.281 3.12 6.396-.561 12.007-5.507 8.393-15.023 4.685-18.424 3.557-4.239-1.406.914.803 4.632 3.276 9.782 6.508 4.769 15.56 4.081 16.613-2.252 3.446-5.474 4.457-5.993 4.697-.758.35-2.141 6.516-8.876 8.094-10.868 2.546-15.308-9.884-16.047-11.052Zm-1.028-43.272c-5.573 1.192-5.365-1.993-6.169-2.411-.774-.402-2.994-.728-2.045-5.975l-.364-.064c-3.699 5.006-5.227 2.349-6.141 2.668-.916.319-1.77 1.022-3.889-.546-1.084-.803-2.551-3.429-2.203-1.75 1.091 5.264-2.035 5.17-2.55 6.365-1.509 3.498-6.494 1.004-5.986 2.157.092.209 1.184.381 2.581 2.464 1.294 1.931-.331 2.396.376 4.218.968 2.496-2.42 4.787-2.802 5.046-1.723 1.165.687.034 2.75.285 3.567.433 2.704 2.228 3.524 2.591 4.086 1.81 1.515 5.568 2.178 6.146.314.274 2.673-3.968 5.234-3.046 2.074.746 2.335-.761 4.24.309 2.476 1.39 3.54 5.144 3.066 2.324-.635-3.78-.078-4.631 2.018-5.71.687-.354.598-2.2 2.984-2.553 2.492-.369 4.743.6 3.161-.52-4.554-3.225-2.028-4.899-2.368-5.92-.647-1.945-.918-3.049 2.642-5.632.003-.109.196-.15.199-.259.001-.038-.031-.013-.436-.188Zm-53.828-28.14c.722 2.305.248 4.134 13.701 15.321 8.181 6.803 15.989 10.605 15.846 9.014-.508-5.666-17.161-25.997-22.459-28.334-3.75-1.654-6.872-.961-7.068-.292-.387 1.315-.062 3.951-.02 4.291Zm12.676 39.46c-1.819.239-17.954 2.358-22.926.771-5.235-1.671-6.257-5.314-6.67-4.118-2.721 7.867 2.953 16.262 13.06 14.191 8.484-1.738 14.105-4.463 15.262-5.023 5.405-2.619 10.652-3.444 14.006-6.894 1.314-1.352 2.096-3.781-.209-2.376-3.435 2.094-11.506 3.263-12.523 3.45Zm66.11-41.841c-.08-1.189.013-2.281-.899-2.483-2.899-.64-5.671.507-6.127.695-5.788 2.395-22.331 23.173-22.715 28.502-.066.915 4.725-.11 15.038-8.419 15.858-12.776 14.572-15.676 14.702-18.295ZM34.8 54.03c3.501.751 7 1.279 10.192 3.338.96.619 2.212-1.879-4.088-5.466-1.007-.573-1.217-.083-13.338-5.633-1.139-.522-11.884-3.879-14.919-3.918-8.644-.111-12.859 7.914-10.4 14.513.679 1.822 1.463-4.547 11.196-4.592 12.149-.057 20.839 1.672 21.357 1.758ZM48.39 80.9c1.963-4.196 1.993-4.162 2.108-4.546 2.308-7.667-.497-8.574-.711-7.718-.392 1.567-1.702 6.808-10.569 17.207-11.377 13.343-13.003 13.299-19.086 13.052-1.029-.042 1.693 5.18 6.692 6.516 9.296 2.484 13.61-7.302 14.32-8.512 5.136-8.761 4.687-10.259 7.247-15.998Zm5.235 3.775c.128-.704 1.251-8.632 3.452-12.251 1.281-2.106-1.106-1.292-2.189-.275-3.885 3.647-2.96 5.502-8.453 16.985-.855 1.787-3.401 10.344-3.951 13.947-1.18 7.717 6.012 14.391 13.971 11.771 2.174-.715-1.461-.892-3.41-6.174-1.807-4.898.074-20.746.58-24.004ZM23.888 73.757c-7.708 4.28-13.422 6.9-12.559 15.174.561 5.376 7.094 9.568 6.808 7.757-1.147-7.275 4.64-11.504 13.277-19.152.412-.365 8.22-6.673 12.77-8.865 3.636-1.751 5.157-1.308 4.149-2.345-1.556-1.599-7.135-.144-8.211.357-5.607 2.612-5.56 2.673-11.405 4.751-1.833.651-3.037 1.403-4.829 2.323Zm69.175-.074c-4.405-2.323-4.482-2.099-9.134-3.876-5.703-2.178-9.371-4.963-14.115-4.097-.77.14-2.127 1.183-1.05 1.492 1.527.437 7.293 2.088 16.915 10.389C98.01 88.23 99.111 89.654 98.947 96.681c-.036 1.534 6.247-2.467 6.796-8.028.822-8.327-5.874-11.199-12.68-14.969ZM19.165 93.492c-.314 3.405-.565 4.753 2.828 4.52 2.983-.205 5.339.518 16.966-13.459 6.716-8.073 11.396-16.749 9.201-16.293-6.834 1.421-26.706 17.708-28.52 23.363-.426 1.329-.391 1.478-.475 1.869Zm29.472-48.604c1.271 3.053 1.12 4.472 2.104 3.351 2.224-2.53-1.009-9.28-1.358-10.009-4.068-8.494-3.015-8.966-7.696-17.108-1.904-3.311-5.627-11.609-14.609-9.619-5.023 1.113-8.128 6.629-6.949 6.593 1.33-.04 3.916-.706 7.963 1.721 1.827 1.096 14.344 12.948 20.546 25.07Zm14.926 40.855c2.963 23.993.098 24.968-3.558 28.366-1.448 1.346 11.436 3.956 14.381-6.735.61-2.214.354-9.24-5.468-21.872-2.716-5.894-3.456-10.599-6.969-13.534-1.154-.965-3.093-1.244-2.156.214 2.466 3.835 3.678 12.969 3.769 13.561ZM38.505 49.505c8.079 3.957 10.956.594 9.882.279-1.541-.453-2.915-.355-9.058-4.353-1.098-.715-17.925-12.79-20.546-19.273-1.77-4.381.057-6.968-1.36-6.219-8.191 4.333-8.285 14.092-.977 18.943 7.33 4.866 12.68 6.806 13.855 7.232.405.147 3.913 1.301 8.203 3.391Zm14.884 55.193c.324 7.063 5.076 9.166 5.43 8.994 1.868-.908 4.317-4.522 4.642-6.848.986-7.055-.809-29.073-4.72-34.348-1.037-1.398-5.786 11.251-5.352 32.202Zm.244-72.147c-.707-4.264-2.381-19.72-.663-24.297 1.757-4.682 5.048-5.504 3.717-6.066-5.493-2.321-14.543 1.378-14.398 10.344.051 3.119 3.279 13.598 4.145 15.43 5.532 11.7 4.244 12.464 7.918 16.324 2.286 2.402 3.346 1.328 3.023.785-2.24-3.769-2.94-7.852-3.742-12.52Zm14.368 38.726c-.019-.054-.386-.873-.751-2.407-.475-1.997-3.544 1.846.056 9.163 4.224 8.585 2.829 9.588 10.14 21.39 6.826 11.019 17.28 5.692 19.684-.052.445-1.063-2.81.307-6.5-1.314-4.803-2.11-17.929-16.706-22.628-26.779Zm10.408-21.772a83 83 0 0 1 8.267-3.468c1.17-.418 6.773-2.419 13.777-7.169 7.632-5.176 5.388-12.48 3.45-15.312-1.608-2.35-5.133-4.619-5.027-3.277.393 4.959.279 7.677-12.667 18.552-12.46 10.467-16.363 10.536-17.675 10.946-1.06.33 1.867 3.649 9.876-.272Zm-5.171-24.707c-2.851 5.421-2.516 7.09-5.874 13.893-3.735 7.566-.557 11.053-.172 9.669.014-.051-.011-2.352 4.318-9.047 2.381-3.682 13.447-17.617 18.122-20.004 5.314-2.714 8.484.148 7.209-2.261-3.615-6.833-13.345-8.794-18.898-.43-2.122 3.197-4.464 7.739-4.706 8.18Zm24.74 71.091c.028-.413.193-2.849-.892-5.099-2.683-5.562-20.793-20.682-28.058-22.505-2.609-.655 2.492 8.266 8.395 15.459C89.854 98.89 92.698 98.009 95.719 97.921c2.143-.062 2.058-.6 2.259-2.032Zm-6.806-42.073c-1.524.169-16.646 1.851-18.652 4.426-.442.567 2.367 2.424 11.194 3.899.299.05 19.601 2.961 25.098.611 2.906-1.243 5.452-3.753 4.782-4.789-3.824-5.917-11.474-5.036-22.422-4.146Zm-7.723-.046c6.199-1.076 20.712-2.401 25.091-.884 4.703 1.63 5.675 4.992 6.152 3.993 2.151-4.506-.152-13.569-8.836-14.566-4.223-.485-15.915 3.679-16.83 4.105-11.857 5.522-12.569 4.334-16.523 8.077-1.946 1.842-1.3 3.317-.575 2.881 2.854-1.716 4.624-2.323 11.52-3.606Zm6.12 10.175c-13.464-1.448-16.449-3.69-17.631-4.38-.58-.339-1.495.69.325 2.611 3.464 3.655 6.57 3.515 14.849 7.388 1.122.525 6.422 3.004 14.749 4.699 8.898 1.812 12.431-4.626 13.234-7.535.933-3.38-.268-7.486-.899-6.853-4.515 4.527-5.008 5.864-24.627 4.069ZM63.007 34.423c-1.952 10.305-3.568 9.853-3.528 10.957.037 1.029 4.343.097 6.795-7.49.939-2.905 3.564-8.648 3.96-9.39.39-.732 5.106-13.162 4.261-18.081-1.261-7.335-8.912-10.372-14.27-8.236-2.127.848 4.135 1.088 4.435 10.62.125 3.983-.159 13.299-1.652 21.62Zm.513-14.407c.015-.451.282-5.209.038-8.542-.381-5.22-4.613-8.743-5.449-8.197-5.538 3.618-4.968 9.914-4.755 15.659.529 14.234 3.894 27.214 5.474 25.362 3.431-4.02 4.568-22.307 4.691-24.282ZM14.514 63.68c17.749-.023 28.715-3.569 29.918-4.934.693-.786-4.178-3.375-17.106-4.72-17.776-1.85-19.688.096-21.717 1.668-3.163 2.451-2.33 3.347-1.691 4.047 3.608 3.954 7.009 3.968 10.595 3.94Z" style="fill:#010101;stroke:#010101;stroke-width:1px"/></svg>