<?xml version="1.0" encoding="UTF-8" standalone="no"?><!DOCTYPE svg PUBLIC "-//W3C//DTD SVG 1.1//EN" "http://www.w3.org/Graphics/SVG/1.1/DTD/svg11.dtd"><svg width="100%" height="100%" viewBox="0 0 117 117" version="1.1" xmlns="http://www.w3.org/2000/svg" xmlns:xlink="http://www.w3.org/1999/xlink" xml:space="preserve" xmlns:serif="http://www.serif.com/" style="fill-rule:evenodd;clip-rule:evenodd;stroke-linejoin:round;stroke-miterlimit:2;"><path d="M74.042,95.407c-0.053,0.094 -0.227,0.07 -0.28,0.164c-0.184,0.329 0.819,1.675 1.8,7.276c1.547,8.843 -7.417,16.298 -16.115,12.672c-0.966,-0.403 -0.998,-0.32 -1.956,0.051c-0.672,0.261 -4.855,1.883 -9.014,-0.017c-11.936,-5.455 -5.101,-19.065 -5.153,-19.931c-0.081,-1.358 -0.342,0.41 -3.334,5.13c-0.588,0.927 -4.682,7.383 -12.402,5.88c-7.664,-1.492 -8.389,-7.747 -9.634,-8.269c-0.698,-0.293 -5.455,-2.289 -6.874,-6.506c-3.783,-11.243 5.839,-15.363 9.94,-17.53c2.891,-1.527 -1.82,0.251 -6.523,1.155c-9.024,1.735 -16.158,-6.85 -13.394,-15.15c0.483,-1.451 0.847,-1.483 0.276,-2.903c-1.903,-4.736 -0.274,-9.118 1.22,-11.159c4.962,-6.778 12.249,-5.132 18.051,-3.158c5.07,1.725 -1.177,-0.879 -5.576,-3.905c-2.723,-1.873 -5.131,-5.704 -4.918,-10.118c0.398,-8.217 8.164,-10.504 8.353,-10.952c0.305,-0.722 2.335,-5.519 6.722,-7.126c11.33,-4.152 16.437,7.955 17.233,9.626c2.23,4.682 -0.125,-1.409 -1.021,-6.494c-0.939,-5.333 2.019,-10.013 5.426,-11.97c6.021,-3.458 11.06,-0.494 11.47,-0.414c0.16,0.031 5.034,-2.358 9.56,-0.609c12.34,4.768 6.059,19.168 5.892,19.664c-1.787,5.294 0.878,-1.271 4.065,-5.854c2.842,-4.085 8.116,-5.415 11.735,-4.624c7.018,1.535 8.736,7.582 8.83,7.791c0.124,0.274 7.662,2.647 8.341,10.429c0.796,9.128 -8.547,12.949 -10.712,13.997c-4.572,2.214 1.378,-0.233 6.369,-1.066c0.795,-0.133 6.043,-1.009 9.791,2.393c6.783,6.156 3.651,12.625 3.021,14.333c-0.104,0.281 3.12,6.396 -0.561,12.007c-5.507,8.393 -15.023,4.685 -18.424,3.557c-4.239,-1.406 0.914,0.803 4.632,3.276c9.782,6.508 4.769,15.56 4.081,16.613c-2.252,3.446 -5.474,4.457 -5.993,4.697c-0.758,0.35 -2.141,6.516 -8.876,8.094c-10.868,2.546 -15.308,-9.884 -16.047,-11.052Zm-1.028,-43.272c-5.573,1.192 -5.365,-1.993 -6.169,-2.411c-0.774,-0.402 -2.994,-0.728 -2.045,-5.975l-0.364,-0.064c-3.699,5.006 -5.227,2.349 -6.141,2.668c-0.916,0.319 -1.77,1.022 -3.889,-0.546c-1.084,-0.803 -2.551,-3.429 -2.203,-1.75c1.091,5.264 -2.035,5.17 -2.55,6.365c-1.509,3.498 -6.494,1.004 -5.986,2.157c0.092,0.209 1.184,0.381 2.581,2.464c1.294,1.931 -0.331,2.396 0.376,4.218c0.968,2.496 -2.42,4.787 -2.802,5.046c-1.723,1.165 0.687,0.034 2.75,0.285c3.567,0.433 2.704,2.228 3.524,2.591c4.086,1.81 1.515,5.568 2.178,6.146c0.314,0.274 2.673,-3.968 5.234,-3.046c2.074,0.746 2.335,-0.761 4.24,0.309c2.476,1.39 3.54,5.144 3.066,2.324c-0.635,-3.78 -0.078,-4.631 2.018,-5.71c0.687,-0.354 0.598,-2.2 2.984,-2.553c2.492,-0.369 4.743,0.6 3.161,-0.52c-4.554,-3.225 -2.028,-4.899 -2.368,-5.92c-0.647,-1.945 -0.918,-3.049 2.642,-5.632c0.003,-0.109 0.196,-0.15 0.199,-0.259c0.001,-0.038 -0.031,-0.013 -0.436,-0.188Zm-53.828,-28.14c0.722,2.305 0.248,4.134 13.701,15.321c8.181,6.803 15.989,10.605 15.846,9.014c-0.508,-5.666 -17.161,-25.997 -22.459,-28.334c-3.75,-1.654 -6.872,-0.961 -7.068,-0.292c-0.387,1.315 -0.062,3.951 -0.02,4.291Zm12.676,39.46c-1.819,0.239 -17.954,2.358 -22.926,0.771c-5.235,-1.671 -6.257,-5.314 -6.67,-4.118c-2.721,7.867 2.953,16.262 13.06,14.191c8.484,-1.738 14.105,-4.463 15.262,-5.023c5.405,-2.619 10.652,-3.444 14.006,-6.894c1.314,-1.352 2.096,-3.781 -0.209,-2.376c-3.435,2.094 -11.506,3.263 -12.523,3.45Zm66.11,-41.841c-0.08,-1.189 0.013,-2.281 -0.899,-2.483c-2.899,-0.64 -5.671,0.507 -6.127,0.695c-5.788,2.395 -22.331,23.173 -22.715,28.502c-0.066,0.915 4.725,-0.11 15.038,-8.419c15.858,-12.776 14.572,-15.676 14.702,-18.295Zm-63.172,32.416c3.501,0.751 7,1.279 10.192,3.338c0.96,0.619 2.212,-1.879 -4.088,-5.466c-1.007,-0.573 -1.217,-0.083 -13.338,-5.633c-1.139,-0.522 -11.884,-3.879 -14.919,-3.918c-8.644,-0.111 -12.859,7.914 -10.4,14.513c0.679,1.822 1.463,-4.547 11.196,-4.592c12.149,-0.057 20.839,1.672 21.357,1.758Zm13.59,26.87c1.963,-4.196 1.993,-4.162 2.108,-4.546c2.308,-7.667 -0.497,-8.574 -0.711,-7.718c-0.392,1.567 -1.702,6.808 -10.569,17.207c-11.377,13.343 -13.003,13.299 -19.086,13.052c-1.029,-0.042 1.693,5.18 6.692,6.516c9.296,2.484 13.61,-7.302 14.32,-8.512c5.136,-8.761 4.687,-10.259 7.247,-15.998Zm5.235,3.775c0.128,-0.704 1.251,-8.632 3.452,-12.251c1.281,-2.106 -1.106,-1.292 -2.189,-0.275c-3.885,3.647 -2.96,5.502 -8.453,16.985c-0.855,1.787 -3.401,10.344 -3.951,13.947c-1.18,7.717 6.012,14.391 13.971,11.771c2.174,-0.715 -1.461,-0.892 -3.41,-6.174c-1.807,-4.898 0.074,-20.746 0.58,-24.004Zm-29.737,-10.918c-7.708,4.28 -13.422,6.9 -12.559,15.174c0.561,5.376 7.094,9.568 6.808,7.757c-1.147,-7.275 4.64,-11.504 13.277,-19.152c0.412,-0.365 8.22,-6.673 12.77,-8.865c3.636,-1.751 5.157,-1.308 4.149,-2.345c-1.556,-1.599 -7.135,-0.144 -8.211,0.357c-5.607,2.612 -5.56,2.673 -11.405,4.751c-1.833,0.651 -3.037,1.403 -4.829,2.323Zm69.175,-0.074c-4.405,-2.323 -4.482,-2.099 -9.134,-3.876c-5.703,-2.178 -9.371,-4.963 -14.115,-4.097c-0.77,0.14 -2.127,1.183 -1.05,1.492c1.527,0.437 7.293,2.088 16.915,10.389c12.331,10.639 13.432,12.063 13.268,19.09c-0.036,1.534 6.247,-2.467 6.796,-8.028c0.822,-8.327 -5.874,-11.199 -12.68,-14.969Zm-73.898,19.809c-0.314,3.405 -0.565,4.753 2.828,4.52c2.983,-0.205 5.339,0.518 16.966,-13.459c6.716,-8.073 11.396,-16.749 9.201,-16.293c-6.834,1.421 -26.706,17.708 -28.52,23.363c-0.426,1.329 -0.391,1.478 -0.475,1.869Zm29.472,-48.604c1.271,3.053 1.12,4.472 2.104,3.351c2.224,-2.53 -1.009,-9.28 -1.358,-10.009c-4.068,-8.494 -3.015,-8.966 -7.696,-17.108c-1.904,-3.311 -5.627,-11.609 -14.609,-9.619c-5.023,1.113 -8.128,6.629 -6.949,6.593c1.33,-0.04 3.916,-0.706 7.963,1.721c1.827,1.096 14.344,12.948 20.546,25.07Zm14.926,40.855c2.963,23.993 0.098,24.968 -3.558,28.366c-1.448,1.346 11.436,3.956 14.381,-6.735c0.61,-2.214 0.354,-9.24 -5.468,-21.872c-2.716,-5.894 -3.456,-10.599 -6.969,-13.534c-1.154,-0.965 -3.093,-1.244 -2.156,0.214c2.466,3.835 3.678,12.969 3.769,13.561Zm-25.058,-36.238c8.079,3.957 10.956,0.594 9.882,0.279c-1.541,-0.453 -2.915,-0.355 -9.058,-4.353c-1.098,-0.715 -17.925,-12.79 -20.546,-19.273c-1.77,-4.381 0.057,-6.968 -1.36,-6.219c-8.191,4.333 -8.285,14.092 -0.977,18.943c7.33,4.866 12.68,6.806 13.855,7.232c0.405,0.147 3.913,1.301 8.203,3.391Zm14.884,55.193c0.324,7.063 5.076,9.166 5.43,8.994c1.868,-0.908 4.317,-4.522 4.642,-6.848c0.986,-7.055 -0.809,-29.073 -4.72,-34.348c-1.037,-1.398 -5.786,11.251 -5.352,32.202Zm0.244,-72.147c-0.707,-4.264 -2.381,-19.72 -0.663,-24.297c1.757,-4.682 5.048,-5.504 3.717,-6.066c-5.493,-2.321 -14.543,1.378 -14.398,10.344c0.051,3.119 3.279,13.598 4.145,15.43c5.532,11.7 4.244,12.464 7.918,16.324c2.286,2.402 3.346,1.328 3.023,0.785c-2.24,-3.769 -2.94,-7.852 -3.742,-12.52Zm14.368,38.726c-0.019,-0.054 -0.386,-0.873 -0.751,-2.407c-0.475,-1.997 -3.544,1.846 0.056,9.163c4.224,8.585 2.829,9.588 10.14,21.39c6.826,11.019 17.28,5.692 19.684,-0.052c0.445,-1.063 -2.81,0.307 -6.5,-1.314c-4.803,-2.11 -17.929,-16.706 -22.628,-26.779Zm10.408,-21.772c0.645,-0.315 3.933,-1.92 8.267,-3.468c1.17,-0.418 6.773,-2.419 13.777,-7.169c7.632,-5.176 5.388,-12.48 3.45,-15.312c-1.608,-2.35 -5.133,-4.619 -5.027,-3.277c0.393,4.959 0.279,7.677 -12.667,18.552c-12.46,10.467 -16.363,10.536 -17.675,10.946c-1.06,0.33 1.867,3.649 9.876,-0.272Zm-5.171,-24.707c-2.851,5.421 -2.516,7.09 -5.874,13.893c-3.735,7.566 -0.557,11.053 -0.172,9.669c0.014,-0.051 -0.011,-2.352 4.318,-9.047c2.381,-3.682 13.447,-17.617 18.122,-20.004c5.314,-2.714 8.484,0.148 7.209,-2.261c-3.615,-6.833 -13.345,-8.794 -18.898,-0.43c-2.122,3.197 -4.464,7.739 -4.706,8.18Zm24.74,71.091c0.028,-0.413 0.193,-2.849 -0.892,-5.099c-2.683,-5.562 -20.793,-20.682 -28.058,-22.505c-2.609,-0.655 2.492,8.266 8.395,15.459c12.431,15.146 15.275,14.265 18.296,14.177c2.143,-0.062 2.058,-0.6 2.259,-2.032Zm-6.806,-42.073c-1.524,0.169 -16.646,1.851 -18.652,4.426c-0.442,0.567 2.367,2.424 11.194,3.899c0.299,0.05 19.601,2.961 25.098,0.611c2.906,-1.243 5.452,-3.753 4.782,-4.789c-3.824,-5.917 -11.474,-5.036 -22.422,-4.146Zm-7.723,-0.046c6.199,-1.076 20.712,-2.401 25.091,-0.884c4.703,1.63 5.675,4.992 6.152,3.993c2.151,-4.506 -0.152,-13.569 -8.836,-14.566c-4.223,-0.485 -15.915,3.679 -16.83,4.105c-11.857,5.522 -12.569,4.334 -16.523,8.077c-1.946,1.842 -1.3,3.317 -0.575,2.881c2.854,-1.716 4.624,-2.323 11.52,-3.606Zm6.12,10.175c-13.464,-1.448 -16.449,-3.69 -17.631,-4.38c-0.58,-0.339 -1.495,0.69 0.325,2.611c3.464,3.655 6.57,3.515 14.849,7.388c1.122,0.525 6.422,3.004 14.749,4.699c8.898,1.812 12.431,-4.626 13.234,-7.535c0.933,-3.38 -0.268,-7.486 -0.899,-6.853c-4.515,4.527 -5.008,5.864 -24.627,4.069Zm-26.562,-29.522c-1.952,10.305 -3.568,9.853 -3.528,10.957c0.037,1.029 4.343,0.097 6.795,-7.49c0.939,-2.905 3.564,-8.648 3.96,-9.39c0.39,-0.732 5.106,-13.162 4.261,-18.081c-1.261,-7.335 -8.912,-10.372 -14.27,-8.236c-2.127,0.848 4.135,1.088 4.435,10.62c0.125,3.983 -0.159,13.299 -1.652,21.62Zm0.513,-14.407c0.015,-0.451 0.282,-5.209 0.038,-8.542c-0.381,-5.22 -4.613,-8.743 -5.449,-8.197c-5.538,3.618 -4.968,9.914 -4.755,15.659c0.529,14.234 3.894,27.214 5.474,25.362c3.431,-4.02 4.568,-22.307 4.691,-24.282Zm-49.006,43.664c17.749,-0.023 28.715,-3.569 29.918,-4.934c0.693,-0.786 -4.178,-3.375 -17.106,-4.72c-17.776,-1.85 -19.688,0.096 -21.717,1.668c-3.163,2.451 -2.33,3.347 -1.691,4.047c3.608,3.954 7.009,3.968 10.595,3.94Z" style="fill:#010101;stroke:#010101;stroke-width:1px;"/></svg>